<?xml version="1.0" encoding="utf-8"?>
<!-- Generator: Adobe Illustrator 24.3.0, SVG Export Plug-In . SVG Version: 6.00 Build 0)  -->
<svg version="1.1" id="Ebene_1" xmlns="http://www.w3.org/2000/svg" xmlns:xlink="http://www.w3.org/1999/xlink" x="0px" y="0px"
	 viewBox="0 0 120 90" style="enable-background:new 0 0 120 90;" xml:space="preserve">
<style type="text/css">
	.st0{fill:#1E1E1E;}
	.st1{fill:#AFAFAF;}
	.st2{fill:#020202;}
	.st3{fill:#6E6E6E;}
	.st4{fill:#030303;}
	.st5{fill:#040404;}
</style>
<g>
	<path class="st0" d="M39.26,16.13c0.03,1.48,0.06,2.96,0.08,4.44c0.01,0.38,0,0.76,0,1.35c0.34-0.28,0.51-0.42,0.69-0.56
		c1.95-1.59,4.54-0.76,5.17,1.66c0.09,0.34,0.19,0.69,0.19,1.04c0.02,2.19,0.01,4.37,0.01,6.65c-0.76,0-1.48,0-2.3,0
		c-0.03-0.29-0.08-0.59-0.08-0.89c-0.01-1.41,0-2.83-0.02-4.24c-0.01-0.49-0.05-0.99-0.13-1.47c-0.18-1.03-0.81-1.59-1.69-1.56
		c-0.82,0.03-1.6,0.73-1.74,1.59c-0.05,0.31-0.05,0.63-0.05,0.95c0,1.52,0,3.04,0,4.56c0,0.35-0.03,0.69-0.05,1.09
		c-0.81,0-1.54,0-2.42,0c0-4.87,0-9.74,0-14.6C37.71,16.13,38.49,16.13,39.26,16.13z"/>
	<path class="st0" d="M72.39,16.13c-0.01,4.41-0.02,8.81-0.03,13.22c0,0.42,0,0.84,0,1.35c-0.82,0-1.57,0-2.46,0
		c0-0.39,0-0.76,0-1.14c0-4.09,0-8.18,0-12.27c0-0.39-0.03-0.77-0.05-1.16C70.69,16.13,71.54,16.13,72.39,16.13z"/>
	<path class="st1" d="M117.42,49.41c-1.06,2.05-2.32,2.69-4.64,2.34c-0.64-0.1-1.27-0.31-1.99-0.48c0.17-0.61,0.3-1.07,0.42-1.49
		c1.02,0.1,1.95,0.26,2.88,0.25c0.85-0.01,1.3-0.87,0.89-1.6c-0.13-0.23-0.38-0.42-0.61-0.56c-0.54-0.33-1.11-0.61-1.67-0.92
		c-1.06-0.6-1.77-1.4-1.64-2.71c0.13-1.31,0.93-2.08,2.1-2.55c1.32-0.53,2.53-0.12,3.86,0.33c-0.18,0.56-0.32,1.02-0.46,1.45
		c-0.76-0.08-1.45-0.18-2.14-0.2c-0.61-0.02-0.96,0.28-1.1,0.79c-0.14,0.54,0.13,0.88,0.56,1.13c0.46,0.26,0.92,0.53,1.4,0.75
		c1.01,0.46,1.75,1.17,2.15,2.21C117.42,48.57,117.42,48.99,117.42,49.41z"/>
	<path class="st2" d="M21.01,74.57c0-4.62,0-9.2,0-13.91c0.95-0.08,1.91-0.07,2.96,0.01c0,1.77,0,3.49,0,5.26c1.52,0,2.94,0,4.47,0
		c0-1.75,0-3.46,0-5.24c1.07,0,2.04,0,3.08,0c0,4.63,0,9.23,0,13.89c-1.01,0-1.97,0-3.03,0c0-1.91,0-3.77,0-5.7
		c-1.52,0-2.95,0-4.46,0c0,1.89,0,3.75,0,5.68C23,74.57,22.07,74.57,21.01,74.57z"/>
	<path class="st2" d="M42.45,60.68c0,1.98,0,3.88,0,6.02c0.29-0.4,0.46-0.6,0.59-0.82c0.9-1.52,1.8-3.03,2.67-4.56
		c0.29-0.52,0.63-0.78,1.25-0.74c0.88,0.05,1.76,0.01,2.77,0.01c-0.17,0.33-0.24,0.55-0.37,0.74c-1.05,1.51-2.08,3.03-3.17,4.5
		c-0.42,0.57-0.45,1.02-0.11,1.63c1.13,1.99,2.22,4,3.33,6.01c0.18,0.34,0.35,0.68,0.57,1.12c-1.19,0-2.29,0-3.5,0
		c-0.95-1.85-1.93-3.75-2.96-5.75c-0.68,0.61-1.12,1.19-1.09,2.09c0.05,1.19,0.01,2.39,0.01,3.66c-1,0-1.94,0-2.94,0
		c0-4.61,0-9.21,0-13.89C40.46,60.68,41.39,60.68,42.45,60.68z"/>
	<path class="st0" d="M92.11,21.63c0.05-0.21,0.1-0.48,0.18-0.8c0.64,0,1.26,0,1.94,0c0.02,0.28,0.06,0.52,0.06,0.76
		c0,2.68,0,5.37-0.03,8.05c-0.01,0.7-0.09,1.41-0.21,2.1c-0.29,1.6-1.22,2.68-2.8,3.14c-1.72,0.5-3.4,0.41-5.16-0.4
		c0.15-0.6,0.3-1.15,0.45-1.76c0.74,0.18,1.38,0.38,2.03,0.5c1.49,0.26,2.74-0.37,3.08-1.6c0.17-0.6,0.17-1.25,0.26-2.06
		c-0.29,0.19-0.42,0.27-0.54,0.36c-1.51,1.23-3.55,1.09-4.85-0.36c-0.26-0.29-0.51-0.61-0.66-0.95c-0.92-2.22-0.93-4.4,0.48-6.45
		c0.89-1.29,2.2-1.81,3.7-1.54C90.76,20.75,91.4,21.27,92.11,21.63z M91.91,25.42c-0.07-0.54-0.07-1.11-0.23-1.64
		c-0.22-0.72-0.74-1.19-1.53-1.28c-0.78-0.1-1.4,0.19-1.8,0.86c-0.91,1.52-0.92,3.08-0.07,4.62c0.4,0.73,1.15,1.02,2,0.87
		c0.73-0.13,1.31-0.7,1.43-1.5C91.82,26.72,91.85,26.09,91.91,25.42z"/>
	<path class="st2" d="M78.37,74.6c-1,0-1.95,0-3,0c0-0.67,0-1.29,0-1.92c0-1.2,0.02-2.4-0.01-3.6c-0.01-0.45-0.09-0.91-0.19-1.35
		c-0.12-0.53-0.49-0.85-1.03-0.92c-0.58-0.07-1.1,0.1-1.33,0.64c-0.21,0.51-0.37,1.07-0.39,1.62c-0.05,1.48-0.02,2.97-0.02,4.45
		c0,0.34,0,0.69,0,1.08c-1.05,0-2,0-2.94,0c-0.23-0.74-0.29-8.67-0.07-10.06c0.79,0,1.59,0,2.45,0c0.07,0.3,0.14,0.61,0.24,1.02
		c0.34-0.25,0.62-0.47,0.9-0.67c1.77-1.24,4.93-0.8,5.38,2.34C78.52,68.4,78.55,73.48,78.37,74.6z"/>
	<path class="st3" d="M8.88,51.7c1.39-4.76,2.73-9.32,4.08-13.93c1.04,0,2.01,0,3.09,0c1.33,4.58,2.65,9.13,3.99,13.74
		c-0.77,0.3-1.45,0.22-2.09,0.15c-0.22-0.02-0.49-0.37-0.58-0.63c-0.28-0.83-0.52-1.69-0.73-2.54c-0.13-0.54-0.42-0.76-0.97-0.74
		c-0.85,0.03-1.7,0.02-2.55,0c-0.51-0.01-0.78,0.19-0.9,0.69c-0.21,0.85-0.49,1.69-0.71,2.55c-0.12,0.48-0.36,0.74-0.88,0.72
		C10.11,51.69,9.58,51.7,8.88,51.7z M12.93,45.9c1.03,0,1.96,0,3.06,0c-0.48-1.98-0.94-3.84-1.59-5.67
		c-0.54,1.71-0.99,3.41-1.42,5.11C12.94,45.47,12.95,45.62,12.93,45.9z"/>
	<path class="st2" d="M50.88,69.6c0.08-2.72,1.41-4.63,3.83-5.2c2.96-0.71,5.64,0.95,6.02,4.13c0.13,1.11,0.09,2.18-0.28,3.23
		c-0.71,2.04-2.51,3.17-4.89,3.1c-2.03-0.06-3.74-1.34-4.31-3.29C51.06,70.93,51,70.26,50.88,69.6z M57.75,69.5
		c-0.15-0.68-0.24-1.31-0.45-1.9c-0.22-0.63-0.66-1.07-1.42-1.05c-0.71,0.01-1.11,0.41-1.36,0.99c-0.58,1.37-0.57,2.74,0.04,4.1
		c0.26,0.6,0.71,0.93,1.41,0.92c0.67-0.01,1.08-0.41,1.27-0.95C57.48,70.93,57.59,70.19,57.75,69.5z"/>
	<path class="st2" d="M15.3,74.59c-1.12,0-2.09,0-3.15,0c0-3.77,0-7.5,0-11.35c-1.16,0-2.23,0-3.36,0c0-0.92,0-1.71,0-2.57
		c3.28,0,6.51,0,9.81,0c0,0.8,0,1.6,0,2.5c-1.07,0-2.15,0-3.3,0C15.3,67.01,15.3,70.74,15.3,74.59z"/>
	<path class="st1" d="M47.72,51.05c0.19-0.68,0.34-1.21,0.5-1.79c0.58,0.16,1.08,0.35,1.59,0.42c0.66,0.09,1.34,0.16,2,0.12
		c1-0.06,1.65-0.63,1.85-1.46c0.19-0.79-0.11-1.56-0.91-2.08c-0.59-0.38-1.26-0.64-1.86-1.01c-0.66-0.4-1.36-0.78-1.9-1.32
		c-1.69-1.72-1.34-4.38,0.71-5.64c1.8-1.1,3.69-0.94,5.58-0.31c0.32,0.7-0.14,1.21-0.16,1.91c-0.58-0.11-1.04-0.25-1.51-0.29
		c-0.62-0.05-1.27-0.11-1.88-0.01c-0.75,0.13-1.26,0.63-1.4,1.41c-0.13,0.76,0.26,1.3,0.86,1.69c0.62,0.4,1.28,0.74,1.92,1.11
		c0.43,0.25,0.85,0.5,1.28,0.75c2.57,1.5,2.08,5.62-0.46,6.7C51.85,52.13,49.85,52.04,47.72,51.05z"/>
	<path class="st0" d="M63.31,20.57c2.14,0.02,3.61,1.11,4.24,3.15c0.42,1.35,0.45,2.7,0,4.05c-0.71,2.16-2.43,3.31-4.78,3.22
		c-1.99-0.08-3.6-1.44-4.09-3.52c-0.27-1.11-0.27-2.24,0-3.35C59.22,21.88,60.97,20.55,63.31,20.57z M65.48,25.77
		c-0.21-0.77-0.37-1.57-0.66-2.31c-0.28-0.7-0.87-1.13-1.65-1.13c-0.73,0-1.3,0.39-1.61,1.03c-0.82,1.65-0.87,3.34,0.08,4.95
		c0.74,1.25,2.24,1.23,3.04,0.02C65.18,27.56,65.35,26.7,65.48,25.77z"/>
	<path class="st0" d="M74.39,25.73c0.13-0.69,0.18-1.4,0.4-2.06c0.59-1.78,2.2-3.23,4.64-3.1c2.05,0.1,3.57,1.26,4.14,3.31
		c0.35,1.25,0.36,2.51,0,3.76c-0.63,2.23-2.57,3.53-5,3.36c-2.1-0.15-3.77-1.83-4.05-4.08c-0.05-0.38-0.05-0.77-0.07-1.16
		C74.44,25.74,74.41,25.73,74.39,25.73z M81.31,25.7c0-0.94-0.25-1.93-0.67-2.53c-0.83-1.16-2.37-1.14-3.06,0.1
		c-0.91,1.63-0.91,3.32-0.03,4.95c0.72,1.33,2.27,1.35,3.09,0.08C81.14,27.56,81.33,26.7,81.31,25.7z"/>
	<path class="st0" d="M48.05,20.81c0.67,0,1.26,0,1.91,0c0.08,0.38,0.15,0.74,0.25,1.2c0.23-0.22,0.41-0.38,0.58-0.54
		c1.05-0.93,2.25-1.14,3.55-0.71c1.29,0.43,1.99,1.45,2.05,2.71c0.11,2.39,0.03,4.78,0.03,7.24c-0.77,0-1.49,0-2.28,0
		c-0.02-0.39-0.05-0.73-0.06-1.07c-0.01-1.45,0.01-2.9-0.02-4.34c-0.01-0.52-0.06-1.06-0.2-1.57c-0.36-1.27-1.83-1.61-2.77-0.67
		c-0.48,0.48-0.64,1.08-0.63,1.74c0.01,1.59,0,3.18,0,4.77c0,0.35,0,0.7,0,1.1c-0.83,0.22-1.58,0.12-2.42,0.08
		C48.05,27.45,48.05,24.18,48.05,20.81z"/>
	<path class="st0" d="M96.47,33.39c0.66-0.46,1.24-0.8,1.74-1.24c1.07-0.93,1.2-1.59,0.71-2.9c-0.95-2.55-1.89-5.09-2.83-7.64
		c-0.08-0.23-0.14-0.47-0.24-0.77c0.89,0,1.72,0,2.61,0c0.69,2.28,1.37,4.56,2.05,6.83c0.07,0,0.14,0,0.22,0
		c0.6-2.26,1.19-4.52,1.81-6.84c0.84,0,1.63,0,2.52,0c-0.48,1.41-0.93,2.75-1.39,4.08c-0.64,1.83-1.27,3.67-1.94,5.49
		c-0.51,1.37-1.22,2.62-2.29,3.65c-0.72,0.69-1.41,1.04-2.39,1.15C96.87,34.61,96.68,34.02,96.47,33.39z"/>
	<path class="st1" d="M81.78,41.68c0.77,0,1.35,0,1.95,0c0.1,0.39,0.19,0.72,0.3,1.13c0.3-0.22,0.53-0.37,0.74-0.54
		c0.63-0.5,1.34-0.71,2.15-0.76c2.05-0.13,3.19,1.39,3.26,2.78c0.12,2.36,0.04,4.73,0.03,7.09c0,0.06-0.07,0.12-0.15,0.25
		c-0.61,0-1.26,0-2.04,0c-0.04-0.4-0.11-0.77-0.11-1.14c-0.01-1.41,0-2.83-0.01-4.24c0-0.35,0-0.71-0.03-1.06
		c-0.1-1.12-0.65-1.72-1.59-1.76c-0.98-0.04-1.83,0.66-1.99,1.67c-0.04,0.28-0.02,0.56-0.03,0.85c0,1.59,0,3.18,0,4.77
		c0,0.24-0.03,0.49-0.05,0.76c-0.72,0.38-1.43,0.22-2.26,0.14c-0.03-0.41-0.07-0.79-0.07-1.16c-0.01-2.15,0.01-4.31-0.01-6.46
		C81.89,43.27,81.82,42.54,81.78,41.68z"/>
	<path class="st0" d="M26.18,26.38c-1.96,0-3.95,0-5.94,0c-0.02,1.57,0.74,2.56,2.1,2.68c0.8,0.07,1.61-0.06,2.42-0.11
		c0.24-0.01,0.47-0.06,0.78-0.1c0.11,0.52,0.21,1,0.33,1.56c-2,0.71-3.93,0.94-5.86-0.03c-0.75-0.38-1.31-0.98-1.64-1.74
		c-0.86-2.03-0.87-4.05,0.27-5.99c0.97-1.65,2.89-2.45,4.74-2c1.05,0.26,1.84,0.86,2.36,1.81C26.33,23.55,26.51,24.9,26.18,26.38z
		 M20.19,24.55c1.29,0,2.56,0,3.85,0c-0.13-1.52-0.64-2.2-1.67-2.28C21.22,22.19,20.5,22.92,20.19,24.55z"/>
	<path class="st1" d="M79.71,47.3c-2.03,0-3.96,0-5.88,0c-0.22,1.18,0.27,2.06,1.33,2.5c0.85,0.35,1.73,0.3,2.61,0.17
		c0.38-0.06,0.75-0.15,1.26-0.26c0.08,0.52,0.14,0.99,0.21,1.41c-2.02,1.17-5.1,0.95-6.59-0.57c-0.69-0.71-1.01-1.6-1.2-2.55
		c-0.33-1.63-0.07-3.16,0.79-4.57c0.87-1.43,2.62-2.2,4.28-1.93c1.71,0.28,2.72,1.29,3.15,3.13C79.88,45.46,79.89,46.29,79.71,47.3z
		 M73.75,45.51c1.31,0,2.56,0,3.79,0c0.14-1.42-0.62-2.43-1.74-2.43C74.67,43.08,73.72,44.15,73.75,45.51z"/>
	<path class="st1" d="M109.33,47.29c-2.13,0-4.06,0-5.97,0c-0.23,1.23,0.28,2.12,1.42,2.55c0.86,0.33,1.74,0.26,2.62,0.11
		c0.34-0.06,0.68-0.13,1.12-0.21c0.09,0.49,0.17,0.93,0.25,1.41c-0.97,0.57-1.98,0.66-3,0.72c-0.45,0.03-0.92-0.05-1.37-0.15
		c-1.51-0.35-2.63-1.18-3.16-2.69c-0.62-1.78-0.58-3.52,0.28-5.24c0.93-1.84,2.91-2.56,4.49-2.32c1.99,0.31,2.99,1.71,3.29,3.76
		C109.41,45.85,109.33,46.49,109.33,47.29z M107.17,45.51c-0.06-0.95-0.21-1.72-1.07-2.2c-0.71-0.39-1.38-0.25-1.97,0.21
		c-0.62,0.48-1.11,1.07-0.85,1.99C104.58,45.51,105.82,45.51,107.17,45.51z"/>
	<path class="st0" d="M18.18,16.87c0,0.65,0,1.27,0,2.01c-1.14,0-2.26,0-3.47,0c0,3.99,0,7.86,0,11.81c-0.82,0-1.55,0-2.43,0
		c-0.01-1.26-0.02-2.54-0.03-3.83c0-1.31,0-2.61,0-3.92c0-1.3,0-2.59,0-4.01c-1.22,0-2.34,0-3.51,0c0-0.74,0-1.36,0-2.06
		C11.88,16.87,15,16.87,18.18,16.87z"/>
	<path class="st4" d="M63.39,59.97c0.93,0,1.87,0,2.8,0c0.23,0.75,0.29,13.24,0.07,14.61c-0.93,0-1.87,0-2.81,0
		C63.25,73.85,63.19,61.36,63.39,59.97z"/>
	<path class="st3" d="M34.12,49.93c0,0.58,0,1.1,0,1.73c-0.6,0.08-1.18,0.23-1.76,0.21c-1.65-0.06-2.58-1.01-2.64-2.7
		c-0.05-1.48-0.02-2.96-0.03-4.44c0-0.38,0-0.76,0-1.17c-0.48-0.09-0.85-0.16-1.36-0.25c-0.02-0.51-0.05-1.04-0.07-1.62
		c0.49-0.06,0.87-0.11,1.36-0.17c0.04-0.54,0.08-1.09,0.13-1.75c0.7-0.22,1.42-0.44,2.26-0.7c0,0.87,0,1.61,0,2.46
		c0.41,0.03,0.75,0.06,1.09,0.07c0.35,0.01,0.7,0,1.14,0c0,0.6,0,1.14,0,1.76c-0.7,0.05-1.36,0.09-2.1,0.14
		c-0.04,0.28-0.11,0.55-0.11,0.81c-0.01,1.16-0.01,2.33,0.01,3.49C32.07,49.37,32.15,49.89,34.12,49.93z"/>
	<path class="st3" d="M35.57,51.25c0.14-0.58,0.26-1.07,0.4-1.63c0.39,0.1,0.69,0.21,1,0.25c0.55,0.08,1.12,0.18,1.67,0.17
		c0.67,0,1.06-0.33,1.19-0.84c0.12-0.48-0.11-0.94-0.69-1.3c-0.3-0.19-0.62-0.34-0.93-0.51c-0.4-0.22-0.82-0.42-1.2-0.67
		c-1.85-1.25-1.65-3.87,0.37-4.83c1.43-0.68,2.86-0.63,4.35,0.12c-0.14,0.52-0.27,1.01-0.4,1.53c-0.65-0.11-1.22-0.26-1.81-0.3
		c-0.82-0.06-1.31,0.24-1.46,0.77c-0.13,0.48,0.14,0.93,0.83,1.32c0.59,0.33,1.21,0.58,1.79,0.93c1.32,0.8,1.76,1.99,1.34,3.45
		c-0.26,0.88-0.84,1.46-1.67,1.79C38.79,52.11,37.25,52.04,35.57,51.25z"/>
	<path class="st0" d="M35.24,21.02c-0.12,0.56-0.24,1.06-0.37,1.67c-1.36-0.22-2.74-0.53-3.76,0.69c-0.7,0.83-0.86,1.84-0.76,2.89
		c0.1,1.07,0.53,1.96,1.52,2.51c0.94,0.52,1.92,0.23,3.01,0.07c0.11,0.57,0.21,1.1,0.3,1.61c-2.3,1.19-6.25,0.68-7.13-2.84
		c-0.29-1.15-0.34-2.29,0-3.44C28.97,21.17,32.01,19.79,35.24,21.02z"/>
	<path class="st1" d="M99.47,49.8c0.1,0.63,0.17,1.07,0.24,1.49c-2.65,1.21-6.26,0.42-7.04-2.85c-0.37-1.56-0.26-2.99,0.44-4.41
		c0.55-1.11,1.41-1.87,2.57-2.23c1.33-0.42,2.69-0.44,4.12,0.09c-0.13,0.54-0.24,1-0.37,1.58c-0.39-0.04-0.73-0.06-1.06-0.11
		c-1.69-0.25-2.9,0.53-3.33,2.2c-0.27,1.05-0.27,2.1,0.32,3.07c0.63,1.04,1.68,1.53,2.88,1.35C98.62,49.91,98.99,49.86,99.47,49.8z"
		/>
	<path class="st1" d="M65.12,41.86c-0.15,0.6-0.26,1.06-0.4,1.61c-1.33-0.1-2.69-0.48-3.69,0.71c-0.69,0.81-0.83,1.77-0.78,2.78
		c0.05,1.12,0.4,2.06,1.43,2.66c0.95,0.56,1.97,0.37,3.11,0.13c0.08,0.63,0.14,1.12,0.22,1.68c-1.76,0.51-3.4,0.63-4.94-0.22
		c-1.82-1.01-2.31-2.77-2.3-4.69c0.02-2.37,1.44-4.26,3.57-4.83C62.55,41.38,63.77,41.38,65.12,41.86z"/>
	<path class="st3" d="M24.23,51.62c-0.88,0-1.57,0-2.33,0c0-3.33,0-6.59,0-9.94c0.59,0,1.17,0,1.85,0c0.09,0.46,0.18,0.93,0.27,1.41
		c1.56-1.61,1.7-1.69,3.05-1.55c0,0.68,0,1.36,0,2.08c-0.16,0.04-0.29,0.09-0.42,0.1c-1.71,0.23-2.39,0.98-2.42,2.74
		c-0.02,1.34-0.01,2.68-0.01,4.02C24.23,50.82,24.23,51.17,24.23,51.62z"/>
	<path class="st1" d="M69.16,51.61c-0.8,0-1.48,0-2.23,0c0-3.33,0-6.57,0-9.83c0.72-0.36,1.44-0.13,2.23-0.14
		C69.16,45,69.16,48.26,69.16,51.61z"/>
	<path class="st5" d="M53.84,62.99c-0.83,0.02-1.4-0.52-1.44-1.34c-0.04-0.88,0.54-1.5,1.4-1.5c0.8,0,1.38,0.59,1.39,1.41
		C55.19,62.4,54.65,62.98,53.84,62.99z"/>
	<path class="st5" d="M59.4,61.62c-0.03,0.84-0.68,1.42-1.54,1.37c-0.8-0.05-1.31-0.65-1.27-1.5c0.04-0.82,0.65-1.37,1.46-1.34
		C58.84,60.19,59.44,60.84,59.4,61.62z"/>
	<path class="st1" d="M67.98,40.05c-0.65-0.01-1.26-0.67-1.26-1.34c0.01-0.64,0.65-1.29,1.31-1.3c0.7-0.02,1.39,0.66,1.37,1.34
		C69.39,39.42,68.69,40.06,67.98,40.05z"/>
</g>
</svg>
